{
  "accessors": [
    {
      "bufferView": 2,
      "componentType": 5126,
      "count": 14566,
      "max": [
        0.03319612145423889,
        0.07558713853359222,
        0.03136901929974556
      ],
      "min": [
        -0.03306196257472038,
        1.3877787807814457e-17,
        -0.031046628952026367
      ],
      "type": "VEC3"
    },
    {
      "bufferView": 2,
      "byteOffset": 174792,
      "componentType": 5126,
      "count": 14566,
      "max": [
        0.9999317526817322,
        0.9999762773513794,
        0.9999995231628418
      ],
      "min": [
        -0.9995206594467163,
        -0.9999475479125977,
        -0.9999735355377197
      ],
      "type": "VEC3"
    },
    {
      "bufferView": 3,
      "componentType": 5126,
      "count": 14566,
      "max": [
        0.9999756217002869,
        0.9997711777687073,
        0.9997361302375793,
        -1.0
      ],
      "min": [
        -0.9996182322502136,
        -0.9913236498832703,
        -0.9826444387435913,
        -1.0
      ],
      "type": "VEC4"
    },
    {
      "bufferView": 1,
      "componentType": 5126,
      "count": 14566,
      "max": [
        0.9999955892562866,
        0.9997708797454834
      ],
      "min": [
        0.00013538417988456786,
        0.07403147220611572
      ],
      "type": "VEC2"
    },
    {
      "bufferView": 1,
      "byteOffset": 116528,
      "componentType": 5126,
      "count": 14566,
      "max": [
        0.9999955892562866,
        0.9997708797454834
      ],
      "min": [
        0.00013538417988456786,
        0.07403147220611572
      ],
      "type": "VEC2"
    },
    {
      "bufferView": 1,
      "byteOffset": 233056,
      "componentType": 5126,
      "count": 14566,
      "max": [
        0.9999955892562866,
        0.9997708797454834
      ],
      "min": [
        0.00013538417988456786,
        0.07403147220611572
      ],
      "type": "VEC2"
    },
    {
      "bufferView": 1,
      "byteOffset": 349584,
      "componentType": 5126,
      "count": 14566,
      "max": [
        0.9999955892562866,
        0.9997708797454834
      ],
      "min": [
        0.00013538417988456786,
        0.07403147220611572
      ],
      "type": "VEC2"
    },
    {
      "bufferView": 1,
      "byteOffset": 466112,
      "componentType": 5126,
      "count": 14566,
      "max": [
        0.9999955892562866,
        0.9997708797454834
      ],
      "min": [
        0.00013538417988456786,
        0.07403147220611572
      ],
      "type": "VEC2"
    },
    {
      "bufferView": 0,
      "componentType": 5125,
      "count": 81132,
      "type": "SCALAR"
    }
  ],
  "asset": {
    "extras": {
      "author": "IsaiahVideo (https://sketchfab.com/legoality_films)",
      "license": "CC-BY-4.0 (http://creativecommons.org/licenses/by/4.0/)",
      "source": "https://sketchfab.com/3d-models/realistic-apple-a8f144765e84450fa706f067bfc70d64",
      "title": "Realistic Apple"
    },
    "generator": "Sketchfab-16.56.0",
    "version": "2.0"
  },
  "bufferViews": [
    {
      "buffer": 0,
      "byteLength": 324528,
      "name": "floatBufferViews",
      "target": 34963
    },
    {
      "buffer": 0,
      "byteLength": 582640,
      "byteOffset": 324528,
      "byteStride": 8,
      "name": "floatBufferViews",
      "target": 34962
    },
    {
      "buffer": 0,
      "byteLength": 349584,
      "byteOffset": 907168,
      "byteStride": 12,
      "name": "floatBufferViews",
      "target": 34962
    },
    {
      "buffer": 0,
      "byteLength": 233056,
      "byteOffset": 1256752,
      "byteStride": 16,
      "name": "floatBufferViews",
      "target": 34962
    }
  ],
  "buffers": [
    {
      "byteLength": 1489808,
      "uri": "scene.bin"
    }
  ],
  "images": [
    {
      "uri": "textures/material_0_baseColor.jpeg"
    },
    {
      "uri": "textures/material_0_metallicRoughness.png"
    },
    {
      "uri": "textures/material_0_normal.jpeg"
    }
  ],
  "materials": [
    {
      "name": "material_0",
      "normalTexture": {
        "index": 2
      },
      "occlusionTexture": {
        "index": 1
      },
      "pbrMetallicRoughness": {
        "baseColorTexture": {
          "index": 0
        },
        "metallicFactor": 0.0,
        "metallicRoughnessTexture": {
          "index": 1
        }
      }
    }
  ],
  "meshes": [
    {
      "name": "Object_0",
      "primitives": [
        {
          "attributes": {
            "NORMAL": 1,
            "POSITION": 0,
            "TANGENT": 2,
            "TEXCOORD_0": 3,
            "TEXCOORD_1": 4,
            "TEXCOORD_2": 5,
            "TEXCOORD_3": 6,
            "TEXCOORD_4": 7
          },
          "indices": 8,
          "material": 0,
          "mode": 4
        }
      ]
    }
  ],
  "nodes": [
    {
      "children": [
        1
      ],
      "matrix": [
        1.0,
        0.0,
        0.0,
        0.0,
        0.0,
        2.220446049250313e-16,
        -1.0,
        0.0,
        0.0,
        1.0,
        2.220446049250313e-16,
        0.0,
        0.0,
        0.0,
        0.0,
        1.0
      ],
      "name": "Sketchfab_model"
    },
    {
      "children": [
        2
      ],
      "name": "root"
    },
    {
      "children": [
        3
      ],
      "matrix": [
        1.0,
        0.0,
        0.0,
        0.0,
        0.0,
        2.220446049250313e-16,
        1.0,
        0.0,
        0.0,
        -1.0,
        2.220446049250313e-16,
        0.0,
        0.0,
        0.0,
        0.0,
        1.0
      ],
      "name": "GLTF_SceneRootNode"
    },
    {
      "children": [
        4
      ],
      "name": "_0"
    },
    {
      "mesh": 0,
      "name": "Object_4"
    }
  ],
  "samplers": [
    {
      "magFilter": 9729,
      "minFilter": 9987,
      "wrapS": 10497,
      "wrapT": 10497
    }
  ],
  "scene": 0,
  "scenes": [
    {
      "name": "Sketchfab_Scene",
      "nodes": [
        0
      ]
    }
  ],
  "textures": [
    {
      "sampler": 0,
      "source": 0
    },
    {
      "sampler": 0,
      "source": 1
    },
    {
      "sampler": 0,
      "source": 2
    }
  ]
}
